<mxfile host="app.diagrams.net" agent="Mozilla/5.0 (X11; Linux x86_64) AppleWebKit/537.36 (KHTML, like Gecko) Chrome/130.0.0.0 Safari/537.36" version="25.0.3">
  <diagram name="Page-1" id="X2Gyg_wKBIPzuAVYzwSA">
    <mxGraphModel dx="683" dy="356" grid="1" gridSize="10" guides="1" tooltips="1" connect="1" arrows="1" fold="1" page="1" pageScale="1" pageWidth="850" pageHeight="1100" math="0" shadow="0">
      <root>
        <mxCell id="0" />
        <mxCell id="1" parent="0" />
        <mxCell id="Cro7-KlL2domwhfLkzVY-1" style="edgeStyle=orthogonalEdgeStyle;rounded=0;orthogonalLoop=1;jettySize=auto;html=1;exitX=0.5;exitY=1;exitDx=0;exitDy=0;entryX=0.5;entryY=0;entryDx=0;entryDy=0;strokeWidth=2;" parent="1" source="Cro7-KlL2domwhfLkzVY-4" target="Cro7-KlL2domwhfLkzVY-8" edge="1">
          <mxGeometry relative="1" as="geometry" />
        </mxCell>
        <mxCell id="Cro7-KlL2domwhfLkzVY-2" value="depends on" style="edgeLabel;html=1;align=center;verticalAlign=middle;resizable=0;points=[];fontSize=12;" parent="Cro7-KlL2domwhfLkzVY-1" vertex="1" connectable="0">
          <mxGeometry x="-0.0524" y="1" relative="1" as="geometry">
            <mxPoint x="-1" y="-9" as="offset" />
          </mxGeometry>
        </mxCell>
        <mxCell id="Cro7-KlL2domwhfLkzVY-3" style="edgeStyle=orthogonalEdgeStyle;rounded=0;orthogonalLoop=1;jettySize=auto;html=1;exitX=1;exitY=0.5;exitDx=0;exitDy=0;entryX=0;entryY=0.5;entryDx=0;entryDy=0;dashed=1;flowAnimation=1;flowAnimationTimingFunction=linear;flowAnimationDirection=reverse;strokeWidth=1;" parent="1" source="Cro7-KlL2domwhfLkzVY-4" target="Cro7-KlL2domwhfLkzVY-7" edge="1">
          <mxGeometry relative="1" as="geometry" />
        </mxCell>
        <mxCell id="Cro7-KlL2domwhfLkzVY-4" value="Application" style="rounded=1;whiteSpace=wrap;html=1;fillColor=#f8cecc;strokeColor=#b85450;fontSize=18;" parent="1" vertex="1">
          <mxGeometry width="120" height="60" as="geometry" />
        </mxCell>
        <mxCell id="Cro7-KlL2domwhfLkzVY-5" style="edgeStyle=orthogonalEdgeStyle;rounded=1;orthogonalLoop=1;jettySize=auto;html=1;exitX=0.5;exitY=1;exitDx=0;exitDy=0;entryX=1;entryY=0.5;entryDx=0;entryDy=0;endArrow=block;endFill=0;curved=0;strokeWidth=2;" parent="1" source="Cro7-KlL2domwhfLkzVY-7" target="Cro7-KlL2domwhfLkzVY-8" edge="1">
          <mxGeometry relative="1" as="geometry" />
        </mxCell>
        <mxCell id="Cro7-KlL2domwhfLkzVY-6" value="implements" style="edgeLabel;html=1;align=center;verticalAlign=middle;resizable=0;points=[];fontSize=12;" parent="Cro7-KlL2domwhfLkzVY-5" vertex="1" connectable="0">
          <mxGeometry x="0.2036" y="-1" relative="1" as="geometry">
            <mxPoint x="48" y="-69" as="offset" />
          </mxGeometry>
        </mxCell>
        <mxCell id="Cro7-KlL2domwhfLkzVY-7" value="Infrastructure&lt;br&gt;Adapter" style="rounded=1;whiteSpace=wrap;html=1;fillColor=#d5e8d4;strokeColor=#82b366;fontSize=18;" parent="1" vertex="1">
          <mxGeometry x="200" width="120" height="60" as="geometry" />
        </mxCell>
        <mxCell id="Cro7-KlL2domwhfLkzVY-8" value="Port" style="rounded=1;whiteSpace=wrap;html=1;fillColor=#f8cecc;strokeColor=#b85450;fontSize=18;" parent="1" vertex="1">
          <mxGeometry y="120" width="120" height="60" as="geometry" />
        </mxCell>
      </root>
    </mxGraphModel>
  </diagram>
</mxfile>
